PathFileType	4	(X/Y/Z)	C:\Users\xlb\Desktop\20210112\20210112\bx_n_10_502.trc
DataRate	CameraRate	NumFrames	NumMarkers	Units	OrigDataRate	OrigDataStartFrame	OrigNumFrames
50.00	50.00	       8	43	mm	50.00	355	       473
Frame#	Time	Top.Head			R.Acromium			L.Acromium			Sternum			R.ASIS			L.ASIS			V.Sacral			R.Thigh.Upper			R.Thigh.Front			R.Thigh.Rear			R.Knee.Lat			R.Knee.Med			R.Shank.Upper			R.Shank.Front			R.Shank.Rear			R.Ankle.Lat			R.Midfoot.Lat			R.Toe.Lat			R.Toe.Tip			R.Toe.Med			R.Ankle.Med			R.Midfoot.Sup			R.Heel			L.Thigh.Upper			L.Thigh.Front			L.Thigh.Rear			L.Knee.Lat			L.Knee.Med			L.Shank.Upper			L.Shank.Front			L.Shank.Rear			L.Ankle.Lat			L.Midfoot.Lat			L.Toe.Lat			L.Toe.Tip			L.Toe.Med			L.Ankle.Med			L.Midfoot.Sup			L.Heel			origin1 front left			origin2 front right			origin 3 back right			origin 4 back leftt			
		X1	Y1	Z1	X2	Y2	Z2	X3	Y3	Z3	X4	Y4	Z4	X5	Y5	Z5	X6	Y6	Z6	X7	Y7	Z7	X8	Y8	Z8	X9	Y9	Z9	X10	Y10	Z10	X11	Y11	Z11	X12	Y12	Z12	X13	Y13	Z13	X14	Y14	Z14	X15	Y15	Z15	X16	Y16	Z16	X17	Y17	Z17	X18	Y18	Z18	X19	Y19	Z19	X20	Y20	Z20	X21	Y21	Z21	X22	Y22	Z22	X23	Y23	Z23	X24	Y24	Z24	X25	Y25	Z25	X26	Y26	Z26	X27	Y27	Z27	X28	Y28	Z28	X29	Y29	Z29	X30	Y30	Z30	X31	Y31	Z31	X32	Y32	Z32	X33	Y33	Z33	X34	Y34	Z34	X35	Y35	Z35	X36	Y36	Z36	X37	Y37	Z37	X38	Y38	Z38	X39	Y39	Z39	X40	Y40	Z40	X41	Y41	Z41	X42	Y42	Z42	X43	Y43	Z43	

355	7.080	-140.83691	96.17993	1351.36316	-344.94250	-60.37404	1159.85376	-352.10916	254.47791	1165.72156	-504.95206	88.80188	1029.65308	-758.39301	-5.81985	987.69263	-755.03406	238.29338	1010.45117	-926.31799	95.10132	1097.66345	-835.07135	-72.62042	862.84967	-746.50128	-4.36471	806.14099	-830.13361	-64.28476	747.47614	-813.62231	-36.39365	609.27246	-793.05206	73.04375	568.14905	-810.04907	-34.68468	561.39001	-750.03125	16.57834	526.42377	-831.60858	-49.30655	474.14273	-761.69922	-22.72988	203.27330	-647.48669	-67.81488	161.72537	-606.21161	-75.58150	156.58806	-549.81140	-27.92525	163.14206	-598.23993	26.17430	166.06461	-725.15137	65.85107	219.93214	-672.70337	51.54351	162.26997	-792.89844	36.20207	172.64612	-857.68994	291.42557	866.83972	-750.45343	214.42944	813.39862	-837.36615	284.74292	730.67950	-842.80206	258.29553	627.35406	-792.04291	148.37651	571.56061	-828.17517	252.78888	564.24927	-766.29077	210.59209	536.82129	-849.63721	264.94208	485.05969	-772.73450	232.10767	201.79738	-659.60760	298.87207	156.31888	-623.28674	306.58929	158.25999	-557.56512	255.33138	163.85983	-594.14520	220.22861	174.04057	-720.44330	159.23900	222.87411	-676.38293	176.71109	163.07927	-798.03235	182.11655	181.84218	-527.96179	304.04520	146.27357	-517.94977	-73.31564	143.07362	-875.90350	-78.77788	140.98972	-882.73468	296.10010	144.64850	
356	7.100	-142.28729	94.89953	1354.90369	-345.96686	-61.50315	1160.90137	-352.43658	253.85007	1169.03760	-504.86020	88.39728	1031.89441	-758.43781	-6.17263	987.96497	-755.13879	238.02855	1010.89746	-926.75989	94.69762	1097.56873	-835.02832	-73.04120	862.87610	-746.51025	-4.77384	806.07178	-830.10901	-64.69660	747.50140	-813.67267	-36.69855	609.23236	-793.04382	72.80153	568.15393	-809.99554	-34.89534	561.37567	-749.93872	16.20168	526.48267	-831.58276	-49.54903	474.19058	-761.79022	-22.79663	203.29689	-647.51123	-67.86874	161.68217	-606.22314	-75.63232	156.59715	-549.79626	-27.99819	163.18944	-598.23871	26.16987	166.11984	-725.14331	65.93411	220.05325	-672.73175	51.52451	162.33682	-792.86182	36.18616	172.68045	-857.63702	290.85846	866.82867	-750.29291	214.04268	813.59503	-837.34570	284.30606	730.71808	-842.80750	258.02893	627.43677	-792.04834	148.08539	571.39886	-828.09656	252.52919	564.31476	-766.29828	210.27451	536.70044	-849.53705	264.70270	485.07281	-772.69861	232.01169	201.80736	-659.61121	298.87918	156.33203	-623.30280	306.64319	158.25255	-557.49280	255.36301	163.84177	-594.08636	220.17805	174.03574	-720.40338	159.24011	222.87172	-676.33380	176.65892	163.06688	-797.99768	182.25545	181.71973	-527.95264	304.04608	146.28293	-517.98053	-73.31627	143.05585	-875.88647	-78.78109	140.99037	-882.67499	296.10202	144.67580	
357	7.120	-144.05603	93.34438	1358.76526	-346.92767	-62.52892	1161.83545	-353.03952	253.29323	1172.91675	-504.79510	87.98752	1034.40686	-758.52679	-6.38084	988.22278	-755.40436	237.77771	1011.31061	-927.30518	94.32701	1097.48767	-834.95105	-73.44572	862.95551	-746.45166	-5.14126	806.06921	-830.04163	-64.98814	747.51080	-813.65942	-36.94493	609.19745	-793.05542	72.51675	568.12219	-809.87311	-35.07465	561.33148	-749.84851	15.91797	526.49847	-831.47327	-49.82560	474.22568	-761.79590	-22.87333	203.32146	-647.51453	-67.90544	161.64302	-606.18201	-75.68415	156.57957	-549.75916	-28.07246	163.21187	-598.22003	26.18471	166.14285	-725.15668	65.97648	220.13197	-672.71667	51.52399	162.37260	-792.83569	36.18031	172.70503	-857.81494	290.30307	866.80438	-750.30090	213.63170	813.86963	-837.41113	283.90076	730.69873	-842.85815	257.69537	627.50970	-792.02637	147.85391	571.32996	-828.10883	252.27235	564.40552	-766.28064	210.06000	536.64667	-849.51587	264.46643	485.07803	-772.66559	231.86777	201.80176	-659.64630	298.87650	156.33304	-623.32202	306.72989	158.27469	-557.42749	255.40842	163.82594	-594.05963	220.16960	174.01836	-720.37701	159.23878	222.87805	-676.24744	176.60475	163.06001	-797.93292	182.49577	181.51613	-527.95166	304.04764	146.28067	-517.99127	-73.29846	143.03815	-875.86115	-78.75578	141.02419	-882.62775	296.09720	144.70731	
358	7.140	-146.11322	91.50740	1362.98499	-347.72263	-63.31370	1162.81592	-354.07126	252.75374	1177.26074	-504.75684	87.57294	1037.19482	-758.63147	-6.51485	988.45502	-755.85254	237.57603	1011.68732	-927.85620	93.92087	1097.31262	-834.89935	-73.75462	863.01385	-746.38239	-5.41550	806.05280	-829.99927	-65.14406	747.46948	-813.65375	-37.11988	609.12689	-793.15277	72.25532	568.02222	-809.82733	-35.22465	561.21936	-749.87640	15.76935	526.40369	-831.40106	-50.08556	474.20200	-761.74292	-22.87291	203.31149	-647.51007	-67.92138	161.60571	-606.12183	-75.71637	156.53694	-549.72089	-28.15309	163.19434	-598.18317	26.23510	166.14311	-725.17181	65.99632	220.13849	-672.65759	51.55615	162.33614	-792.83929	36.18752	172.69754	-858.17596	289.82022	866.78973	-750.47241	213.26364	814.08301	-837.59619	283.53745	730.65656	-842.97693	257.33612	627.54443	-792.03735	147.73076	571.31262	-828.24536	252.00224	564.45465	-766.29846	209.96510	536.65326	-849.64838	264.29861	485.08963	-772.65503	231.73058	201.76642	-659.71448	298.88116	156.31265	-623.33075	306.82547	158.25565	-557.41925	255.44908	163.81013	-594.09058	220.21837	173.99834	-720.37158	159.23679	222.89034	-676.16937	176.55884	163.05679	-797.89642	182.67799	181.34534	-527.96210	304.04562	146.26907	-517.99133	-73.27841	143.02097	-875.85132	-78.72348	141.06815	-882.59741	296.06992	144.72430	
359	7.160	-148.40350	89.42210	1367.62988	-348.41287	-63.93803	1164.11902	-355.64172	252.23215	1181.93970	-504.74551	87.15387	1040.26270	-758.73920	-6.64082	988.66138	-756.36322	237.41125	1012.06866	-928.33453	93.45370	1097.02490	-834.95496	-73.96169	862.97894	-746.42236	-5.60576	805.91260	-830.09229	-65.22261	747.33563	-813.80609	-37.26529	609.00018	-793.42078	72.06874	567.82520	-810.01349	-35.33669	561.02710	-750.13733	15.71657	526.15582	-831.52924	-50.27013	474.07388	-761.69812	-22.73759	203.24126	-647.52704	-67.92588	161.55583	-606.10809	-75.72749	156.48549	-549.70007	-28.25075	163.14632	-598.12866	26.30905	166.14793	-725.20099	66.01775	220.07420	-672.55774	51.62385	162.22812	-792.88373	36.21168	172.64952	-858.55450	289.45175	866.80548	-750.76044	212.99638	814.11737	-837.90179	283.26373	730.64392	-843.17181	257.04251	627.54242	-792.15833	147.71492	571.28552	-828.50256	251.76384	564.44165	-766.40814	209.96114	536.68115	-849.95264	264.25183	485.12540	-772.69751	231.68852	201.71291	-659.80603	298.91809	156.26553	-623.33704	306.91718	158.12750	-557.50769	255.47385	163.80426	-594.18433	220.31119	173.97719	-720.40948	159.23767	222.89812	-676.14246	176.53770	163.09261	-797.92584	182.66835	181.30363	-527.98132	304.02765	146.26019	-517.99341	-73.27234	143.00163	-875.87280	-78.70644	141.10703	-882.58539	296.02914	144.71085	
360	7.180	-150.86740	87.13525	1372.73877	-349.19077	-64.65755	1166.03296	-357.71448	251.78593	1186.85913	-504.76117	86.73067	1043.61511	-758.83313	-6.76237	988.82703	-756.73523	237.21257	1012.50403	-928.71265	92.97443	1096.71887	-835.13995	-74.11554	862.82666	-746.65283	-5.78360	805.62933	-830.40045	-65.31716	747.08698	-814.22632	-37.41998	608.80969	-793.87262	71.95148	567.53796	-810.49353	-35.41174	560.77100	-750.63745	15.67773	525.81970	-831.93921	-50.35350	473.82019	-761.71063	-22.48822	203.10239	-647.57831	-67.92422	161.47356	-606.16919	-75.74680	156.43886	-549.70740	-28.34992	163.08601	-598.07855	26.37643	166.17656	-725.28186	66.03763	219.96452	-672.44708	51.71365	162.10745	-792.96570	36.25855	172.57362	-858.79120	289.20508	866.86316	-751.07220	212.82660	813.98895	-838.25903	283.13968	730.67761	-843.40240	256.87280	627.53754	-792.38586	147.76059	571.23273	-828.82343	251.64069	564.44000	-766.59900	209.99591	536.70685	-850.32233	264.32239	485.18552	-772.79956	231.77634	201.67459	-659.90735	298.99988	156.20164	-623.36414	307.01944	157.91425	-557.68073	255.48242	163.81841	-594.31891	220.42374	173.94769	-720.50378	159.24315	222.89551	-676.19110	176.56905	163.16632	-798.01788	182.50597	181.37086	-528.00226	303.99536	146.26242	-518.00201	-73.27686	142.97646	-875.90662	-78.70472	141.14352	-882.59821	296.00467	144.67157	
361	7.200	-153.44727	84.70982	1378.32935	-350.29303	-65.70802	1168.75781	-360.12436	251.44003	1191.95190	-504.80389	86.30367	1047.25610	-758.86835	-6.87171	988.96295	-756.81653	236.89862	1013.01404	-928.99890	92.55216	1096.48462	-835.39789	-74.26018	862.61151	-747.03876	-6.01605	805.31158	-830.88971	-65.51025	746.76819	-814.84363	-37.57631	608.55377	-794.40936	71.86971	567.22595	-811.17975	-35.46439	560.50146	-751.22040	15.56839	525.55499	-832.55286	-50.34333	473.45898	-761.77679	-22.21926	202.93997	-647.65375	-67.93338	161.35811	-606.27759	-75.80061	156.39586	-549.74786	-28.42091	163.02985	-598.05896	26.39749	166.23047	-725.43256	66.03385	219.84566	-672.36432	51.80485	162.02740	-793.07513	36.32861	172.49570	-858.79681	289.04614	866.96320	-751.25397	212.71759	813.82996	-838.51343	283.15625	730.73639	-843.57806	256.79288	627.55518	-792.58929	147.81711	571.18512	-829.08807	251.65312	564.53229	-766.78107	210.02092	536.73077	-850.57935	264.43509	485.26797	-772.93445	231.94705	201.68150	-660.00354	299.11520	156.14618	-623.41577	307.13907	157.71136	-557.87939	255.47935	163.85017	-594.45544	220.54346	173.89766	-720.62518	159.25069	222.88838	-676.29999	176.65556	163.23328	-798.14136	182.35248	181.45201	-528.01776	303.96823	146.27054	-518.01257	-73.25942	142.93867	-875.92316	-78.71154	141.17863	-882.63184	296.01343	144.62898	
362	7.220	-156.13474	82.23986	1384.44775	-351.91571	-67.13005	1172.37720	-362.70978	251.11374	1197.16479	-504.87378	85.87321	1051.19043	-758.77393	-7.01648	989.16711	-756.57440	236.42094	1013.59222	-929.22748	92.20312	1096.31262	-835.61456	-74.40582	862.43817	-747.41748	-6.30472	805.08917	-831.38245	-65.80562	746.48962	-815.43176	-37.70440	608.27881	-794.87775	71.79298	566.97314	-811.86682	-35.52170	560.28058	-751.68036	15.35751	525.46539	-833.17792	-50.27577	473.06320	-761.85126	-22.02870	202.82219	-647.73248	-67.98912	161.23680	-606.38672	-75.88104	156.34119	-549.80890	-28.46319	162.97948	-598.06018	26.34365	166.29501	-725.59900	65.99651	219.76361	-672.32379	51.87426	161.99529	-793.19458	36.40874	172.44446	-858.51477	288.89862	867.10248	-751.14075	212.62399	813.76941	-838.48462	283.18582	730.81055	-843.59637	256.70523	627.59937	-792.59900	147.83907	571.18591	-829.16199	251.72687	564.70428	-766.84497	210.00604	536.76276	-850.61261	264.48611	485.37289	-773.05640	232.10739	201.73012	-660.08032	299.22949	156.11613	-623.46021	307.25311	157.58614	-558.04456	255.47375	163.88560	-594.55792	220.65034	173.83292	-720.72308	159.25671	222.88341	-676.41339	176.75095	163.26413	-798.26202	182.31371	181.48770	-528.02240	303.96594	146.27751	-518.02203	-73.21259	142.89928	-875.92090	-78.72730	141.20596	-882.67065	296.04459	144.60266	
